<?xml version="1.0" encoding="utf-8"?>
<!-- Generator: Adobe Illustrator 22.1.0, SVG Export Plug-In . SVG Version: 6.00 Build 0)  -->
<svg version="1.1" id="Layer_1" xmlns="http://www.w3.org/2000/svg" xmlns:xlink="http://www.w3.org/1999/xlink" x="0px" y="0px"
	 viewBox="0 0 1287 438.5" style="enable-background:new 0 0 1287 438.5;" xml:space="preserve">
<style type="text/css">
	.st0{fill:#263C75;}
</style>
<g>
	<g>
		<g>
			<g id="Layer_5_47_">
				<g>
					<path class="st0" d="M312.9,247.6L173.5,35.4c-2.8-4.3-7.1-6.8-11.7-6.8c-4.7,0-9.1,2.6-11.9,7l-132.6,212
						c-2.9,4.6-3.2,9.6-0.9,13.8c2.3,4.2,6.7,6.5,12.2,6.5H302c5.5,0,9.9-2.4,12.2-6.6C316.3,257.2,315.9,252.1,312.9,247.6z
						 M161.8,45.2c1.4,0,2.2,1.3,2.2,1.3l84.5,125.8c5.4,9.8,1.8,12.8-8.5,2.8c0,0-30.6-35.5-42-46.1c-2.9-2.7-8.7-3.3-12-1.2
						c-8.5,5.7-23.2,20-31.8,25.6c-3.3,2.1-7.8,0.3-8.7-3.5c-3.1-12.6-5.6-38.5-8.9-51c-1-3.8-4.7-4.5-7.8-2.2
						c-0.8,0.6-2.4,1.6-3.3,2.1c-1,0.6-0.4-0.2-0.4-0.2l34.6-52.2C159.7,46.4,160.4,45.2,161.8,45.2z"/>
					<path class="st0" d="M390.9,218L262.6,22.7c-2.6-4-6.5-6.2-10.8-6.2c-4.4,0-8.3,2.4-10.9,6.5L214,65.8c0,0-1,1.5-0.2,3.3
						c0.9,1.9,3.3,5.4,4.6,7.1c1,1.3,2.4-0.9,2.4-0.9l29.3-44.5c0,0,0.8-1.2,1.7-1.2c1,0,1.8,1.3,1.8,1.3l83.5,123.6
						c2.4,3.4-3.9,3.5-9.4-0.9c-8.3-6.6-24.6-20.1-32.9-26.7c-2.8-2.2-8-3-11-1.1c-4.5,2.9-15.1,11.2-19.5,15.2
						c-2.3,2.1-0.6,4.2-0.6,4.2l58.4,88.9c0,0,1.7,2.9,4.3,2.9c13.6,0,54.4,0,54.4,0c5,0,9.1-2.2,11.2-6.1
						C394,226.8,393.7,222.2,390.9,218z"/>
				</g>
			</g>
		</g>
	</g>
	<g>
		<path class="st0" d="M415.8,162c0-14.4,2.8-28.2,8.3-41.3c5.6-13.1,13-24.3,22.4-33.8s20.6-17,33.6-22.6s26.7-8.4,40.9-8.4
			c18.2,0,35,4.3,50.4,12.8c15.5,8.5,28,20.1,37.7,34.6l-41.7,29.1c-5-7.9-11.6-14.2-19.8-18.9c-8.2-4.7-17.1-7.1-26.7-7.1
			c-15.2,0-28.1,5.4-38.7,16.2s-15.9,23.9-15.9,39.4c0,15.4,5.3,28.5,15.8,39.3s23.5,16.2,38.8,16.2c9.7,0,18.6-2.3,26.8-6.9
			c8.2-4.6,14.8-10.9,19.9-18.8l41.1,28.8c-9.7,14.6-22.2,26.1-37.6,34.7c-15.4,8.5-32.1,12.8-50.3,12.8c-14.3,0-27.9-2.8-40.9-8.4
			s-24.2-13.2-33.6-22.6c-9.4-9.5-16.8-20.8-22.4-33.9C418.6,189.9,415.8,176.2,415.8,162z"/>
		<path class="st0" d="M639.5,265.3V58.7h85.4c11.7,0,22.2,2,31.5,5.9s16.7,9.2,22.3,15.7c5.6,6.6,9.9,13.9,12.7,22
			c2.9,8.1,4.3,16.5,4.3,25.4c0,15.6-4.2,29.6-12.7,41.9s-20.7,20.5-36.8,24.5l50.4,71.3h-58.1l-44.5-69h-4.4v69h-50.1V265.3z
			 M689.5,153.1h32.9c7.6,0,13.3-2.5,17-7.5s5.6-11,5.6-18c0-6.9-1.8-12.9-5.5-17.8s-9.3-7.4-17.1-7.4h-32.9V153.1z"/>
		<path class="st0" d="M807,58.7h54.2l35.7,117.6l23.4-87.9H962l23,87.9l36-117.6h54.6l-70.3,206.6h-38.7l-26.1-100.5l-25.2,100.5
			h-39L807,58.7z"/>
		<path class="st0" d="M1096.6,265.3V58.7h81.8c14.6,0,27.9,2.7,39.8,8c11.9,5.3,21.8,12.6,29.6,22c7.8,9.3,13.8,20.3,18.1,32.9
			c4.2,12.6,6.4,26.3,6.4,41c0,19.6-3.6,37.1-10.8,52.5c-7.2,15.4-18,27.6-32.3,36.7s-31.2,13.6-50.6,13.6h-82V265.3z M1146.7,220.9
			h31.5c9.4,0,17.5-2.8,24.2-8.4c6.7-5.6,11.7-12.7,14.9-21.3c3.2-8.6,4.8-18.2,4.8-28.7c0-7.8-0.9-15.3-2.8-22.3
			s-4.6-13.3-8.1-18.9c-3.6-5.6-8.2-10-13.9-13.3c-5.7-3.3-12-4.9-19.1-4.9h-31.5V220.9z"/>
	</g>
	<g>
		<path class="st0" d="M339.5,387.3c-0.5-0.2-0.8-0.3-0.9-0.5c-0.5-0.4-0.9-0.8-1-1.3c-0.2-0.5-0.2-1-0.1-1.4
			c0.1-0.5,0.4-0.8,0.7-1.1c0.4-0.3,0.8-0.4,1.4-0.4c0.2-2.6,0.2-5.3,0.3-8c0-2.7,0.1-5.4,0.2-8.1c0-0.3,0-0.8-0.1-1.6
			c0-0.8-0.1-1.6-0.1-2.7c0-1-0.1-2.1-0.1-3.2s0-2.2,0.1-3.3c-0.6-0.1-1.1-0.3-1.4-0.8s-0.5-0.9-0.5-1.4s0.2-1,0.5-1.4
			c0.3-0.5,0.8-0.8,1.5-0.9c0.2,0,0.4,0,0.6-0.1c0.2-0.7,0.5-1.2,0.9-1.5c0.8-0.5,1.5-0.6,2.1-0.4s1.1,0.6,1.3,1.2
			c4.4-0.7,8.8-1.1,13.2-1.4c4.4-0.3,8.8-0.5,13.2-0.6c0.8,0.1,1.4,0.3,1.8,0.8s0.6,0.9,0.6,1.5c0,0.5-0.2,1-0.6,1.5s-1,0.7-1.8,0.8
			c-1.3,0-2.2,0-2.9,0.1c-0.6,0-1.2,0.1-1.5,0.1c-0.4,0-0.8,0-1.2,0.1c-0.5,0-1.2,0.1-2.1,0.2c-3.2,0.4-6.3,0.7-9.5,0.8
			c-3.2,0.2-6.3,0.5-9.5,1c0,0.5,0,0.9,0.1,1.2c0.1,3.2,0.1,6.6,0,10c-0.1,2.9-0.1,5.9-0.2,8.9c0,3-0.1,5.9-0.3,8.9
			c1.4,0.2,2.8,0.3,4.2,0.1c1.4-0.2,2.9-0.4,4.3-0.7c1.4-0.3,2.8-0.7,4.2-1.1c1.4-0.4,2.6-0.8,3.8-1.1c0.8-0.2,1.4-0.2,1.9,0.2
			c0.5,0.3,0.9,0.8,1,1.2c0.2,0.5,0.1,1-0.1,1.6s-0.7,1-1.5,1.3c-2.6,0.8-5.6,1.5-8.8,2.3c-3.2,0.8-6.3,1-9.3,0.6
			c-0.2,3.8-0.3,7.6-0.5,11.4c-0.2,3.7-0.2,7.5-0.2,11.4c1.3,0.2,2.9,0.3,4.8,0.2c1.9-0.1,3.8-0.2,5.7-0.5c1.9-0.3,3.7-0.5,5.4-0.8
			c1.7-0.3,2.9-0.5,3.7-0.7c1.4,0.2,2.2,0.8,2.4,1.9c0.2,1.1-0.4,2-1.7,2.6c-1.1,0.2-2.5,0.5-4.2,0.8s-3.4,0.6-5.3,0.8
			c-1.9,0.2-3.8,0.4-5.7,0.5c-1.9,0.1-3.6,0-5.2-0.2c-0.2,0.6-0.4,1-0.8,1.3s-0.8,0.4-1.3,0.3c-0.5,0-0.9-0.2-1.3-0.5
			s-0.7-0.8-1-1.4v-1.2l-1.1-1l-0.3-2.7l1-2.1L339.5,387.3z"/>
		<path class="st0" d="M385.7,350.4c0.1-0.8,0.3-1.4,0.7-1.8c0.4-0.5,0.9-0.7,1.4-0.7s1,0.1,1.5,0.5s0.8,1,0.9,1.8
			c0.2,4.5,0.5,9,1.1,13.5s1,8.9,1.2,13.5c0.2,4.9,0.3,9.8,0.3,14.6c0,4.8,0,9.7,0.1,14.6c0.2,1.3,0.2,2.5,0.2,3.8
			c0,1.2,0,2.5,0,3.7H393c0,0.2,0,0.3,0.1,0.5c0,0.2,0.1,0.4,0.1,0.5l-4.5-0.3v-0.3c-1.4,0.4-2.4,0.7-3.2,1
			c-0.8,0.3-1.5,0.5-2.2,0.6s-1.4,0.1-2.2-0.1c-0.8-0.2-1.8-0.5-3.1-1c-1.7-0.7-2.9-1.9-3.7-3.8c-0.8-1.8-1.2-3.9-1.3-6.1
			c-0.1-2.2,0.2-4.4,0.8-6.4c0.6-2,1.5-3.5,2.6-4.5c1.4-1.1,2.8-2,4.2-2.6c1.5-0.6,3.1-0.4,4.9,0.7c0.6,0.4,1.1,0.8,1.6,1.1
			c0.5,0.4,0.9,0.8,1.4,1.1c-0.1-2.8-0.1-5.6-0.2-8.4c0-2.8-0.1-5.6-0.3-8.4c-0.2-4.5-0.6-9-1.2-13.5
			C386.2,359.4,385.8,354.9,385.7,350.4z M388.5,409.4c0-0.7,0-1.4-0.1-2c0-0.7-0.1-1.4-0.1-2.1c-0.2-2.3-0.8-4.4-1.9-6.3
			c-1-1.8-2.8-3-5.3-3.3c-0.9,0.8-1.7,2-2.5,3.8s-1.2,3.6-1.3,5.4c-0.1,1.8,0.2,3.4,0.8,4.7c0.7,1.3,2,1.9,4,1.6
			c1.1-0.2,2-0.4,2.9-0.7c0.9-0.3,1.8-0.6,2.8-0.8c0.1,0,0.2,0,0.2-0.1C388.2,409.5,388.3,409.4,388.5,409.4z"/>
		<path class="st0" d="M398.2,396.1c0.1-0.8,0.3-1.4,0.7-1.8c0.4-0.5,0.9-0.7,1.4-0.7s1,0.1,1.5,0.5s0.8,1,0.9,1.8
			c0.2,1.7,0.4,3.5,0.8,5.2s0.6,3.5,0.8,5.2c0.1,0.8,0.1,1.7-0.1,2.7c-0.1,0.9-0.2,1.9-0.2,2.8c2.4-2.1,4.2-4.5,5.3-7.1
			c1.1-2.6,2.3-5.4,3.4-8.3c0.5-0.2,0.9-0.3,1.4-0.3c0.5-0.1,1-0.2,1.5-0.3l-0.1-0.2c0.1,0,0.1,0,0.2,0.1c0,0,0.1,0.1,0.2,0.1
			c-0.1,0-0.2,0-0.2,0.1l1.6,2c0.1,1.1,0.1,2.3,0.1,3.6c0,1.2,0,2.5,0.2,3.7s0.4,2.4,0.8,3.5s1,2.1,1.8,3c0.6,1.3,0.5,2.3-0.3,3.1
			c-0.8,0.8-1.8,0.8-3.1,0c-1.1-1.1-1.8-2.4-2.4-3.7c-0.5-1.3-0.9-2.7-1.1-4.2c-0.8,1.5-1.6,3-2.5,4.5s-1.9,2.7-2.9,3.7
			s-2.1,1.7-3.1,2.1c-1.1,0.4-2.1,0.2-3.1-0.5c-0.8-0.5-1.4-1.2-1.6-2c-0.3-0.8-0.4-1.7-0.4-2.6s0.1-1.8,0.2-2.8
			c0.1-0.9,0.1-1.8,0.1-2.5c-0.2-1.7-0.4-3.5-0.8-5.2C398.6,399.6,398.4,397.8,398.2,396.1z"/>
		<path class="st0" d="M444.3,397.3c-0.2,0.7-0.4,1.2-0.8,1.6s-0.8,0.6-1.3,0.6s-1-0.2-1.4-0.5c-0.5-0.3-0.8-0.8-1-1.4v-0.1
			c-0.8-0.3-1.7-0.6-2.6-0.9s-1.8-0.5-2.7-0.7c-1.6-0.2-2.9,0.2-3.8,1.1c-1,0.9-1.7,2-2.1,3.4c-0.5,1.4-0.6,2.8-0.5,4.3
			c0.2,1.5,0.6,2.8,1.2,3.8c0.8,1.2,1.8,2,2.9,2.5s2.3,0.7,3.5,0.6c1.2,0,2.4-0.2,3.7-0.6c1.2-0.4,2.4-0.8,3.5-1.4
			c0.7-0.2,1.3-0.1,1.8,0.1s0.8,0.5,1.1,1c0.2,0.4,0.3,0.9,0.2,1.4c-0.1,0.5-0.4,1-1,1.5c-2.6,1.3-5.3,2-7.9,2.3
			c-2.6,0.2-4.9-0.2-7-1.1c-2-1-3.7-2.5-4.9-4.7c-1.2-2.1-1.8-4.9-1.6-8.3c0.1-1.1,0.3-2.1,0.7-3.3c0.4-1.1,1-2,1.6-2.7
			c0.6-0.6,1.1-1.3,1.6-2s1.1-1.1,1.9-1.3c1.1-0.3,2.5-0.5,4.1-0.7s3.2-0.1,4.7,0.2c1.5,0.3,2.8,0.9,4,1.7
			C443.3,394.5,444,395.7,444.3,397.3z"/>
		<path class="st0" d="M454.1,397.1c-0.5,0.7-1,1.1-1.5,1.3c-0.6,0.2-1.1,0.2-1.5-0.1c-0.5-0.2-0.8-0.6-1.1-1.2
			c-0.3-0.6-0.3-1.2-0.1-2c1-1.5,2.2-2.7,3.7-3.6s3-1.4,4.6-1.6s3.3-0.2,5,0.2c1.7,0.3,3.3,0.9,4.7,1.8c0.8,0.4,1.3,0.9,1.8,1.7
			c0.4,0.8,0.8,1.5,1.3,2.3c0.8,1.1,1.3,2.5,1.8,4c0.4,1.5,0.7,3.2,0.8,4.8c0.2,1.7,0.2,3.3,0.2,5s0,3.1,0,4.4l-4.3,1
			c-0.1,0-0.2,0-0.2,0.1v-0.5l-0.2-0.5c-0.4,0.5-0.8,0.9-1.4,1c-2.4,0.8-4.9,1.2-7.5,1s-4.7-0.8-6.3-1.9c-1.6-1.1-2.4-2.6-2.4-4.5
			s1.3-4.1,4-6.7c0.8-0.8,1.8-1.2,3.1-1.4c1.2-0.2,2.5-0.2,3.7,0.1c1.3,0.3,2.5,0.7,3.7,1.2c1.2,0.6,2.2,1.2,3,2
			c-0.2-2.6-0.8-4.9-1.8-7c-0.5-1.3-1.4-2.3-2.5-2.9c-1.1-0.7-2.3-1.1-3.6-1.1c-1.3-0.1-2.6,0.1-3.8,0.6
			C455.9,395.3,454.9,396,454.1,397.1z M466.3,411c0.5-0.2,1-0.2,1.4,0c-0.4-0.8-0.8-1.4-1.2-1.8c-1.2-1.4-2.4-2.2-3.6-2.5
			s-2.3-0.4-3.2-0.1c-0.9,0.3-1.7,0.7-2.3,1.4c-0.6,0.6-0.8,1.3-0.8,2s0.4,1.2,1.1,1.7c0.8,0.5,2,0.6,3.6,0.6c1.1-0.1,2-0.2,2.6-0.3
			C464.4,411.7,465.3,411.4,466.3,411z M473.2,412.8c0.2,0.4,0.2,0.3,0.1-0.1L473.2,412.8z"/>
		<path class="st0" d="M467,387c-0.7-0.2-1.2-0.5-1.5-1c-0.3-0.4-0.5-0.9-0.5-1.4s0.2-0.9,0.5-1.4c0.3-0.4,0.8-0.7,1.5-0.8
			c2,0,3.9-0.1,5.9-0.2c2-0.2,4-0.3,5.9-0.6l0.5-14.3c0.1-0.8,0.3-1.4,0.7-1.8c0.4-0.5,0.9-0.7,1.4-0.7s1,0.1,1.5,0.5s0.8,1,0.9,1.8
			l-0.5,14l6.8-0.3c0.8,0.1,1.4,0.3,1.8,0.8c0.4,0.5,0.6,0.9,0.6,1.5c0,0.5-0.2,1-0.6,1.5c-0.4,0.5-1,0.7-1.8,0.8l-7,0.3
			c-0.2,5.1-0.1,10.2,0.1,15.2c0.2,5,0.7,10.1,1.5,15.1c0.1,0.8-0.1,1.5-0.4,1.9c-0.3,0.5-0.8,0.7-1.2,0.8c-0.5,0.1-1,0-1.5-0.3
			s-0.9-0.8-1.2-1.5c-0.8-5.2-1.3-10.4-1.5-15.4c-0.2-5.1-0.2-10.2-0.1-15.4c-2,0.2-3.9,0.4-5.9,0.6C470.9,387,469,387,467,387z"/>
		<path class="st0" d="M491.4,397.7c0.1-0.8,0.3-1.4,0.7-1.8c0.4-0.5,0.9-0.7,1.4-0.7s1,0.1,1.5,0.5s0.8,1,0.9,1.8
			c0.5,2.9,0.8,5.8,1,8.7c0.2,2.9,0.4,5.8,0.7,8.7c0.2,0.5,0.3,1.1,0.2,1.6c0,0.1,0,0.2-0.1,0.2c0,0.1-0.1,0.2-0.1,0.2l-4.4-0.5
			c-0.5-3.2-0.8-6.3-1-9.3C492.2,403.9,491.9,400.8,491.4,397.7z M494.5,381.3c0.7,0.4,1.1,0.8,1.4,1.4c0.2,0.5,0.3,1.1,0.1,1.6
			s-0.5,0.9-1.1,1.2c-0.6,0.3-1.2,0.3-2,0.1h-0.1l-0.9-0.2c0.1-0.8,0.1-1.5,0.1-2.3s0-1.5,0-2.3h0.1c0.3,0,0.6,0.1,0.9,0.2
			C493.4,380.9,493.9,381,494.5,381.3z"/>
		<path class="st0" d="M515.1,394.4c0.1,0.1,0.2,0.1,0.2,0.1c2,0.2,3.6,1,5,2.4c1.4,1.5,2.4,3.2,3,5.3c0.6,2,0.8,4.1,0.5,6.3
			c-0.3,2.2-1.1,4.1-2.4,5.7c-0.7,0.8-1.5,1.3-2.5,1.6c-1,0.3-2.1,0.6-3.2,0.7c-1.1,0.1-2.2,0.1-3.3,0.1c-1.1-0.1-2.1-0.2-2.9-0.2
			c-2.6-0.2-4.7-0.9-6.1-2.4c-1.4-1.4-2.3-3.1-2.6-5.1s-0.2-4.1,0.4-6.2c0.6-2.1,1.5-4,2.8-5.6s2.9-2.7,4.8-3.3
			C510.7,393.1,512.8,393.3,515.1,394.4z M513.3,399.3c-0.8,0.4-1.4,0.4-1.9,0.2c-0.5-0.3-0.9-0.7-1.1-1.2c-1.2,0.3-2.2,1-3,2.1
			s-1.4,2.3-1.7,3.6c-0.3,1.3-0.4,2.6-0.2,3.8c0.2,1.2,0.7,2.1,1.5,2.7c1.2,0.8,2.6,1.3,4.2,1.5c1.6,0.2,3.1,0.2,4.4,0
			c1.6-0.2,2.7-0.9,3.4-1.9c0.7-1.1,1-2.3,0.9-3.6c-0.1-1.4-0.4-2.7-1-4s-1.4-2.3-2.4-3c-0.2-0.2-0.5-0.3-0.9-0.5h-0.7
			C514.3,398.9,513.8,399,513.3,399.3z"/>
		<path class="st0" d="M532.5,409.2c-0.2-2.3-0.6-4.5-1.1-6.7s-1.3-4.2-2.3-6.1c-0.9-0.7-1.2-1.7-0.9-3.1l0.2-0.5l3.7-0.2
			c0.7,1.1,1.3,2.2,1.8,3.4c0.5,1.2,0.9,2.5,1.3,3.7c0.6-1.1,1.3-2.1,2-3.1c0.8-1,1.6-2,2.5-2.9c0.7-0.6,1.4-1.2,2.3-1.7
			c0.8-0.5,1.7-0.9,2.7-1.2c0.9-0.3,1.9-0.3,2.8-0.2c0.9,0.1,1.8,0.5,2.6,1.2c1.8,1.7,3.1,3.6,3.7,5.8c0.7,2.2,1.1,4.5,1.2,7
			c0.1,2.4,0.1,4.8,0,7.3s0,4.8,0.3,7c0.2,0.5,0.3,0.9,0.2,1.5c-0.1,0.5-0.4,1-1,1.5l-0.1,0.1c-0.6-0.3-1.2-0.6-1.7-0.8
			c-0.5-0.3-1.1-0.5-1.7-0.7c-0.4-1.8-0.5-3.8-0.5-5.9c0.1-2.1,0.1-4.3,0.1-6.4s-0.2-4.2-0.5-6.2s-0.9-3.7-1.9-5.1
			c-0.7-1.1-1.5-1.5-2.4-1.4c-0.9,0.2-1.8,0.6-2.7,1.4s-1.7,1.6-2.4,2.7c-0.7,1-1.2,1.8-1.5,2.4c-1.2,2-1.8,4-1.8,6.2
			c0,2.1-0.1,4.4-0.2,6.6v1h-0.1l-3.7,0.3l-0.7,0.1v-0.1C532.4,413.5,532.3,411.3,532.5,409.2z"/>
		<path class="st0" d="M564.7,409.4c0.8-0.2,1.5-0.1,2,0.2c0.5,0.3,0.9,0.8,1,1.4c0.6,0.6,1,1.3,1.1,2.1c0.2,0.8,0.1,1.6-0.2,2.4
			s-0.8,1.5-1.4,2s-1.4,0.8-2.3,0.8c-1.4,0-2.3-0.4-2.9-1.2c-0.6-0.8-0.9-1.8-0.8-2.8c0-1.1,0.4-2.1,1-3.1
			C562.8,410.4,563.7,409.7,564.7,409.4z"/>
		<path class="st0" d="M628.9,361.4c1.3,0.6,1.8,1.5,1.6,2.5c-0.2,1.1-1,1.7-2.4,1.9c-2.3-0.4-4.3-0.8-6.2-1.2
			c-1.8-0.5-3.6-0.7-5.4-0.8c-1.7-0.1-3.5,0.1-5.1,0.6c-1.7,0.5-3.5,1.5-5.4,3.1c-2.7,2.3-4.7,5.1-5.9,8.5s-1.7,7-1.6,10.6
			c0.2,3.7,0.9,7.2,2.2,10.7s3.1,6.4,5.5,8.8c2.1,2.1,4,3.6,5.8,4.6c1.7,0.9,3.5,1.6,5.4,1.9c1.8,0.3,3.8,0.5,5.9,0.5
			c2.1,0,4.6,0.1,7.5,0.3c1.3,0.6,1.8,1.5,1.6,2.5c-0.2,1.1-1,1.7-2.4,1.9c-2.3-0.2-4.7-0.3-7.2-0.4c-2.6-0.1-5.1-0.4-7.6-0.9
			s-4.8-1.3-7-2.5s-4-2.9-5.5-5.3c-1.1-1.8-2.4-3.6-3.8-5.3c-1.4-1.7-2.3-3.6-2.7-5.7l-2-11.8c-0.2-1.4-0.1-3.3,0.3-5.6
			c0.4-2.3,1.1-4.6,1.9-6.8c0.9-2.3,1.9-4.3,3.2-6.2c1.3-1.9,2.7-3.2,4.2-3.8c1.7-0.8,3.3-1.6,5-2.3c1.7-0.7,3.3-1.4,5-2
			c1.2-0.5,2.4-0.6,3.7-0.6c1.3,0.1,2.6,0.3,3.8,0.6c1.3,0.3,2.6,0.7,3.8,1.1C626.3,360.8,627.6,361.1,628.9,361.4z"/>
		<path class="st0" d="M638.4,392.6c-0.2-0.7-0.3-1.3-0.1-1.8s0.4-0.9,0.8-1.1c0.4-0.2,0.9-0.3,1.5-0.3s1.1,0.3,1.6,0.7
			c0.3,0.5,0.6,1,0.8,1.5c0.3,0.5,0.5,0.9,0.7,1.5c0.4-0.8,0.9-1.5,1.7-2.3c1.7-1.6,3.3-2.7,4.9-3.4c1.6-0.7,3.1-0.9,4.4-0.7
			c1.4,0.2,2.5,0.9,3.5,2.1c0.9,1.2,1.6,2.9,2.1,5.2c0.1,0.8-0.1,1.5-0.4,1.9c-0.3,0.5-0.8,0.7-1.2,0.8c-0.5,0.1-1,0-1.5-0.3
			s-0.9-0.8-1.2-1.5c-0.5-2.4-1.4-3.8-2.5-4.1c-1.1-0.3-2.7,0.7-4.6,3c-0.8,1.1-1.5,2.3-2.1,3.6c-0.6,1.4-1,2.8-1.4,4.3
			c0.1,1.3,0.1,2.6,0.1,3.8c0,1.3,0,2.6,0.2,3.8c0.2,1.1,0.3,2.2,0.4,3.2c0.1,1,0.1,2.1-0.1,3.3c-0.8,0-1.5,0-2.3,0.1
			c-0.8,0-1.5,0.1-2.3,0.2c-0.5-1.7-0.8-3.9-0.9-6.4c-0.1-2.5,0.1-5.1,0.5-7.7c0-1.7-0.2-3.4-0.5-5S639.4,394.1,638.4,392.6z"/>
		<path class="st0" d="M675.8,394.4c0.1,0.1,0.2,0.1,0.2,0.1c2,0.2,3.6,1,5,2.4c1.4,1.5,2.4,3.2,3,5.3c0.6,2,0.8,4.1,0.5,6.3
			c-0.3,2.2-1.1,4.1-2.4,5.7c-0.7,0.8-1.5,1.3-2.5,1.6c-1,0.3-2.1,0.6-3.2,0.7c-1.1,0.1-2.2,0.1-3.3,0.1c-1.1-0.1-2.1-0.2-2.9-0.2
			c-2.6-0.2-4.7-0.9-6.1-2.4c-1.4-1.4-2.3-3.1-2.6-5.1s-0.2-4.1,0.4-6.2c0.6-2.1,1.5-4,2.8-5.6s2.9-2.7,4.8-3.3
			C671.5,393.1,673.6,393.3,675.8,394.4z M674,399.3c-0.8,0.4-1.4,0.4-1.9,0.2c-0.5-0.3-0.9-0.7-1.1-1.2c-1.2,0.3-2.2,1-3,2.1
			s-1.4,2.3-1.7,3.6c-0.3,1.3-0.4,2.6-0.2,3.8c0.2,1.2,0.7,2.1,1.5,2.7c1.2,0.8,2.6,1.3,4.2,1.5c1.6,0.2,3.1,0.2,4.4,0
			c1.6-0.2,2.7-0.9,3.4-1.9c0.7-1.1,1-2.3,0.9-3.6c-0.1-1.4-0.4-2.7-1-4s-1.4-2.3-2.4-3c-0.2-0.2-0.5-0.3-0.9-0.5h-0.7
			C675,398.9,674.5,399,674,399.3z"/>
		<path class="st0" d="M689.6,397.3c-0.2-0.2-0.2-0.5-0.2-0.8s-0.1-0.6-0.2-0.8c-0.7-0.5-1-1.3-1-2.3c0.1-0.1,0.1-0.2,0.1-0.3
			c0.7-0.2,1.4-0.3,2-0.5c0.7-0.2,1.3-0.3,1.9-0.5c1.2,1.6,2.2,3.6,3.1,6.1c0.9,2.5,1.6,4.8,2.2,7.2c0.1-1.4,0.2-2.7,0.4-4
			s0.5-2.5,0.8-3.6c0.4-1.1,0.9-2,1.6-2.7c0.7-0.7,1.5-1.2,2.6-1.4c0.5-0.1,0.9,0.1,1.3,0.5c0.4,0.4,0.8,0.9,1.1,1.6
			c0.3,0.6,0.6,1.2,0.8,1.8c0.2,0.6,0.3,0.9,0.4,1.1c0.3,0.7,0.6,1.4,0.8,2c0.3,0.7,0.5,1.4,0.7,2c0.6,1.6,1.2,3.2,1.8,4.8
			c0.6,1.6,1.3,3.2,2.1,4.7c0.3-3.2,0.4-6.3,0.3-9.5c-0.1-3.2-0.2-6.3-0.2-9.5c0.1-0.8,0.3-1.4,0.7-1.8c0.4-0.5,0.9-0.7,1.4-0.7
			s1,0.1,1.5,0.5s0.8,1,0.9,1.8c0,0.6,0.1,2,0.3,4.3s0.4,4.8,0.4,7.5s-0.1,5.4-0.5,8c-0.3,2.6-1.1,4.6-2.2,5.9c-0.6,0-1.2,0-1.7,0.1
			c-0.5,0-1.1,0.1-1.7,0.2c-2.2-2.2-3.9-4.8-5.1-7.9c-1.2-3.1-2.4-6.2-3.5-9.3l-0.7,4c-0.2,1.1-0.2,2-0.3,2.9c0,0.9-0.1,1.8-0.1,2.8
			c0,0.9-0.1,1.9-0.2,2.9c-0.1,1-0.4,2.1-0.8,3.2l-3.7,0.8c-0.7-0.9-1.2-1.9-1.6-3c-0.4-1.1-0.8-2.2-1-3.5c-0.3-1.2-0.5-2.4-0.7-3.6
			s-0.5-2.2-0.8-3.2c-0.4-1.4-0.8-2.8-1.4-4C690.9,399.9,690.3,398.6,689.6,397.3z"/>
		<path class="st0" d="M734.7,350.4c0.1-0.8,0.3-1.4,0.7-1.8c0.4-0.5,0.9-0.7,1.4-0.7s1,0.1,1.5,0.5s0.8,1,0.9,1.8
			c0.2,4.5,0.5,9,1.1,13.5s1,8.9,1.2,13.5c0.2,4.9,0.3,9.8,0.3,14.6c0,4.8,0,9.7,0.1,14.6c0.2,1.3,0.2,2.5,0.2,3.8
			c0,1.2,0,2.5,0,3.7H742c0,0.2,0,0.3,0.1,0.5c0,0.2,0.1,0.4,0.1,0.5l-4.5-0.3v-0.3c-1.4,0.4-2.4,0.7-3.2,1s-1.5,0.5-2.2,0.6
			s-1.4,0.1-2.2-0.1s-1.8-0.5-3.1-1c-1.7-0.7-2.9-1.9-3.7-3.8c-0.8-1.8-1.2-3.9-1.3-6.1s0.2-4.4,0.8-6.4s1.5-3.5,2.6-4.5
			c1.4-1.1,2.8-2,4.2-2.6c1.5-0.6,3.1-0.4,4.9,0.7c0.6,0.4,1.1,0.8,1.6,1.1c0.5,0.4,0.9,0.8,1.4,1.1c-0.1-2.8-0.1-5.6-0.2-8.4
			c0-2.8-0.1-5.6-0.3-8.4c-0.2-4.5-0.6-9-1.2-13.5C735.2,359.4,734.8,354.9,734.7,350.4z M737.5,409.4c0-0.7,0-1.4-0.1-2
			c0-0.7-0.1-1.4-0.1-2.1c-0.2-2.3-0.8-4.4-1.9-6.3c-1-1.8-2.8-3-5.3-3.3c-0.9,0.8-1.7,2-2.5,3.8s-1.2,3.6-1.3,5.4s0.2,3.4,0.8,4.7
			c0.7,1.3,2,1.9,4,1.6c1.1-0.2,2-0.4,2.9-0.7c0.9-0.3,1.8-0.6,2.8-0.8c0.1,0,0.2,0,0.2-0.1C737.2,409.5,737.3,409.4,737.5,409.4z"
			/>
		<path class="st0" d="M768.9,400.8c-1.4,0.1-2.3-0.5-2.6-1.7c-1.2-0.4-2.7-0.4-4.4-0.2c-1.7,0.3-3.2,0.6-4.4,1.1
			c1.7,0.7,3.6,1.3,5.7,1.8c2.1,0.5,4.2,1.1,6.2,1.8c2,0.7,3.7,1.5,5.1,2.6c1.5,1.1,2.4,2.5,2.8,4.2l-0.9,2.6
			c-1.5,1-3.7,1.8-6.7,2.5c-2.9,0.7-5.9,1-9,1.1c-3.1,0-5.9-0.3-8.4-1.1c-2.6-0.8-4.2-2.1-4.9-4.1l0.7-2l1.4-1.4
			c0.5-0.3,1.1-0.4,1.6-0.4s1,0.2,1.4,0.5s0.6,0.7,0.7,1.2c0.1,0.5,0,1.1-0.3,1.6c1.3,0.5,2.8,0.8,4.4,1c1.7,0.2,3.4,0.2,5.1,0.2
			c1.7-0.1,3.5-0.3,5.1-0.6c1.7-0.3,3.2-0.8,4.6-1.4c-0.9-1-2.4-1.8-4.6-2.4c-2.1-0.6-4.4-1.2-6.6-1.8c-2.3-0.6-4.3-1.3-6.2-2
			c-1.9-0.8-3-1.8-3.3-3.1c-0.2-0.9,0-1.8,0.7-2.6c0.7-0.8,1.6-1.5,2.9-2.1c1.2-0.6,2.7-1,4.2-1.3c1.6-0.3,3.1-0.5,4.7-0.5
			c1.5,0,3,0.2,4.2,0.6c1.3,0.4,2.3,1,2.9,1.9v2.8C770.6,400.2,769.8,400.6,768.9,400.8z"/>
		<path class="st0" d="M795,394.4c0.1,0.1,0.2,0.1,0.2,0.1c2,0.2,3.6,1,5,2.4c1.4,1.5,2.4,3.2,3,5.3c0.6,2,0.8,4.1,0.5,6.3
			c-0.3,2.2-1.1,4.1-2.4,5.7c-0.7,0.8-1.5,1.3-2.5,1.6c-1,0.3-2.1,0.6-3.2,0.7c-1.1,0.1-2.2,0.1-3.3,0.1c-1.1-0.1-2.1-0.2-2.9-0.2
			c-2.6-0.2-4.7-0.9-6.1-2.4c-1.4-1.4-2.3-3.1-2.6-5.1s-0.2-4.1,0.4-6.2c0.6-2.1,1.5-4,2.8-5.6s2.9-2.7,4.8-3.3
			C790.6,393.1,792.7,393.3,795,394.4z M793.1,399.3c-0.8,0.4-1.4,0.4-1.9,0.2c-0.5-0.3-0.9-0.7-1.1-1.2c-1.2,0.3-2.2,1-3,2.1
			s-1.4,2.3-1.7,3.6c-0.3,1.3-0.4,2.6-0.2,3.8c0.2,1.2,0.7,2.1,1.5,2.7c1.2,0.8,2.6,1.3,4.2,1.5c1.6,0.2,3.1,0.2,4.4,0
			c1.6-0.2,2.7-0.9,3.4-1.9c0.7-1.1,1-2.3,0.9-3.6c-0.1-1.4-0.4-2.7-1-4s-1.4-2.3-2.4-3c-0.2-0.2-0.5-0.3-0.9-0.5h-0.7
			C794.2,398.9,793.7,399,793.1,399.3z"/>
		<path class="st0" d="M808.5,396.1c0.1-0.8,0.3-1.4,0.7-1.8c0.4-0.5,0.9-0.7,1.4-0.7s1,0.1,1.5,0.5s0.8,1,0.9,1.8
			c0.2,1.7,0.4,3.5,0.8,5.2c0.4,1.7,0.6,3.5,0.8,5.2c0.1,0.8,0.1,1.7-0.1,2.7c-0.1,0.9-0.2,1.9-0.2,2.8c2.4-2.1,4.2-4.5,5.3-7.1
			s2.3-5.4,3.4-8.3c0.5-0.2,0.9-0.3,1.4-0.3c0.5-0.1,1-0.2,1.5-0.3l-0.1-0.2c0.1,0,0.1,0,0.2,0.1c0,0,0.1,0.1,0.2,0.1
			c-0.1,0-0.2,0-0.2,0.1l1.6,2c0.1,1.1,0.1,2.3,0.1,3.6c0,1.2,0,2.5,0.2,3.7s0.4,2.4,0.8,3.5c0.4,1.1,1,2.1,1.8,3
			c0.6,1.3,0.5,2.3-0.3,3.1c-0.8,0.8-1.8,0.8-3.1,0c-1.1-1.1-1.8-2.4-2.4-3.7c-0.5-1.3-0.9-2.7-1.1-4.2c-0.8,1.5-1.6,3-2.5,4.5
			s-1.9,2.7-2.9,3.7s-2.1,1.7-3.1,2.1c-1.1,0.4-2.1,0.2-3.1-0.5c-0.8-0.5-1.4-1.2-1.6-2c-0.3-0.8-0.4-1.7-0.4-2.6s0.1-1.8,0.2-2.8
			c0.1-0.9,0.1-1.8,0.1-2.5c-0.2-1.7-0.4-3.5-0.8-5.2C808.9,399.6,808.7,397.8,808.5,396.1z"/>
		<path class="st0" d="M835.2,392.6c-0.2-0.7-0.3-1.3-0.1-1.8s0.4-0.9,0.8-1.1c0.4-0.2,0.9-0.3,1.5-0.3s1.1,0.3,1.6,0.7
			c0.3,0.5,0.6,1,0.8,1.5c0.3,0.5,0.5,0.9,0.7,1.5c0.4-0.8,0.9-1.5,1.7-2.3c1.7-1.6,3.3-2.7,4.9-3.4c1.6-0.7,3.1-0.9,4.4-0.7
			c1.4,0.2,2.5,0.9,3.5,2.1c0.9,1.2,1.6,2.9,2.1,5.2c0.1,0.8-0.1,1.5-0.4,1.9c-0.3,0.5-0.8,0.7-1.2,0.8c-0.5,0.1-1,0-1.5-0.3
			s-0.9-0.8-1.2-1.5c-0.5-2.4-1.4-3.8-2.5-4.1c-1.1-0.3-2.7,0.7-4.6,3c-0.8,1.1-1.5,2.3-2.1,3.6c-0.6,1.4-1,2.8-1.4,4.3
			c0.1,1.3,0.1,2.6,0.1,3.8c0,1.3,0,2.6,0.2,3.8c0.2,1.1,0.3,2.2,0.4,3.2c0.1,1,0.1,2.1-0.1,3.3c-0.8,0-1.5,0-2.3,0.1
			c-0.8,0-1.5,0.1-2.3,0.2c-0.5-1.7-0.8-3.9-0.9-6.4c-0.1-2.5,0.1-5.1,0.5-7.7c0-1.7-0.2-3.4-0.5-5S836.2,394.1,835.2,392.6z"/>
		<path class="st0" d="M879.5,397.3c-0.2,0.7-0.4,1.2-0.8,1.6c-0.4,0.4-0.8,0.6-1.3,0.6s-1-0.2-1.4-0.5c-0.5-0.3-0.8-0.8-1-1.4v-0.1
			c-0.8-0.3-1.7-0.6-2.6-0.9c-0.9-0.3-1.8-0.5-2.7-0.7c-1.6-0.2-2.9,0.2-3.8,1.1c-1,0.9-1.7,2-2.1,3.4c-0.5,1.4-0.6,2.8-0.5,4.3
			c0.2,1.5,0.6,2.8,1.2,3.8c0.8,1.2,1.8,2,2.9,2.5c1.1,0.5,2.3,0.7,3.5,0.6c1.2,0,2.4-0.2,3.7-0.6c1.2-0.4,2.4-0.8,3.5-1.4
			c0.7-0.2,1.3-0.1,1.8,0.1s0.8,0.5,1.1,1c0.2,0.4,0.3,0.9,0.2,1.4s-0.4,1-1,1.5c-2.6,1.3-5.3,2-7.9,2.3c-2.6,0.2-4.9-0.2-7-1.1
			c-2-1-3.7-2.5-4.9-4.7c-1.2-2.1-1.8-4.9-1.6-8.3c0.1-1.1,0.3-2.1,0.7-3.3c0.4-1.1,1-2,1.6-2.7c0.6-0.6,1.1-1.3,1.6-2
			s1.1-1.1,1.9-1.3c1.1-0.3,2.5-0.5,4.1-0.7s3.2-0.1,4.7,0.2c1.5,0.3,2.8,0.9,4,1.7C878.5,394.5,879.2,395.7,879.5,397.3z"/>
		<path class="st0" d="M905.9,403.5c-0.8,0.7-1.8,1.1-3.1,1.3c-1.2,0.2-2.5,0.3-3.8,0.3s-2.7,0-4-0.1c-1.4,0-2.6,0.1-3.8,0.3
			c-0.6,0.5-1.2,0.7-1.8,0.7h-0.3c0.5,2,1.5,3.6,2.9,4.9s3.2,2,5.4,2c1.5,0,2.9-0.2,4.2-0.6s2.6-0.9,3.9-1.5c0.2,0,0.3-0.1,0.6-0.3
			c0.3-0.7,0.7-1.2,1.2-1.6c0.2-0.2,0.5-0.2,0.7-0.3c0.2,0,0.4-0.1,0.6-0.2c0.6,0.4,1.1,0.7,1.6,1.1c0.5,0.3,1,0.7,1.5,1.1
			c-0.2,1.3-1,2.4-2.6,3.5c-1.6,1-3.4,1.8-5.4,2.4s-4,1-6,1.1s-3.5-0.1-4.5-0.6c-2.1-1.1-3.8-2.3-5.1-3.6c-1.3-1.3-2.3-2.7-2.9-4.2
			c-0.6-1.5-1-3.2-1.1-5s0.1-3.9,0.5-6.2c0.2-1.7,0.8-3,1.6-4.1s1.8-1.8,3-2.4c1.2-0.5,2.5-0.8,3.8-0.9c1.4-0.1,2.8,0,4.1,0.2
			s2.4,0.7,3.3,1.7c0.9,1,1.9,1.9,3,2.7c0.5,0.4,1.1,0.9,1.7,1.6c0.6,0.7,1.1,1.5,1.4,2.3c0.3,0.8,0.5,1.6,0.5,2.4
			C907.1,402.2,906.7,402.9,905.9,403.5z M895.9,395.2c-1.1-0.5-2.1-0.7-2.9-0.5c-0.8,0.2-1.5,0.6-2.1,1.3c-0.6,0.7-1,1.5-1.4,2.4
			c-0.3,0.9-0.6,1.9-0.7,2.9c1.1-0.4,2.1-0.6,3.3-0.7c1.1-0.1,2.3-0.1,3.4-0.1s2.3,0,3.5,0s2.3-0.1,3.3-0.3
			c-0.3-0.5-0.7-0.9-1.2-1.4s-1.1-1-1.7-1.4c-0.6-0.5-1.2-0.9-1.8-1.2C896.8,395.7,896.3,395.4,895.9,395.2z"/>
		<path class="st0" d="M927.6,350.4c0.1-0.8,0.3-1.4,0.7-1.8c0.4-0.5,0.9-0.7,1.4-0.7s1,0.1,1.5,0.5s0.8,1,0.9,1.8
			c0.2,4.5,0.5,9,1.1,13.5s1,8.9,1.2,13.5c0.2,4.9,0.3,9.8,0.3,14.6c0,4.8,0,9.7,0.1,14.6c0.2,1.3,0.2,2.5,0.2,3.8
			c0,1.2,0,2.5,0,3.7h-0.1c0,0.2,0,0.3,0.1,0.5c0,0.2,0.1,0.4,0.1,0.5l-4.5-0.3v-0.3c-1.4,0.4-2.4,0.7-3.2,1s-1.5,0.5-2.2,0.6
			s-1.4,0.1-2.2-0.1s-1.8-0.5-3.1-1c-1.7-0.7-2.9-1.9-3.7-3.8c-0.8-1.8-1.2-3.9-1.3-6.1s0.2-4.4,0.8-6.4s1.5-3.5,2.6-4.5
			c1.4-1.1,2.8-2,4.2-2.6c1.5-0.6,3.1-0.4,4.9,0.7c0.6,0.4,1.1,0.8,1.6,1.1c0.5,0.4,0.9,0.8,1.4,1.1c-0.1-2.8-0.1-5.6-0.2-8.4
			c0-2.8-0.1-5.6-0.3-8.4c-0.2-4.5-0.6-9-1.2-13.5C928.2,359.4,927.8,354.9,927.6,350.4z M930.5,409.4c0-0.7,0-1.4-0.1-2
			c0-0.7-0.1-1.4-0.1-2.1c-0.2-2.3-0.8-4.4-1.9-6.3c-1-1.8-2.8-3-5.3-3.3c-0.9,0.8-1.7,2-2.5,3.8s-1.2,3.6-1.3,5.4s0.2,3.4,0.8,4.7
			c0.7,1.3,2,1.9,4,1.6c1.1-0.2,2-0.4,2.9-0.7c0.9-0.3,1.8-0.6,2.8-0.8c0.1,0,0.2,0,0.2-0.1C930.2,409.5,930.3,409.4,930.5,409.4z"
			/>
		<path class="st0" d="M945.5,409.4c0.8-0.2,1.5-0.1,2,0.2c0.5,0.3,0.9,0.8,1,1.4c0.6,0.6,1,1.3,1.1,2.1c0.2,0.8,0.1,1.6-0.2,2.4
			s-0.8,1.5-1.4,2c-0.6,0.6-1.4,0.8-2.3,0.8c-1.4,0-2.3-0.4-2.9-1.2c-0.6-0.8-0.9-1.8-0.8-2.8c0-1.1,0.4-2.1,1-3.1
			C943.6,410.4,944.5,409.7,945.5,409.4z"/>
	</g>
</g>
</svg>
