<?xml version="1.0" encoding="utf-8"?>
<!-- Generator: Adobe Illustrator 22.1.0, SVG Export Plug-In . SVG Version: 6.00 Build 0)  -->
<svg version="1.1" id="Layer_1" xmlns="http://www.w3.org/2000/svg" xmlns:xlink="http://www.w3.org/1999/xlink" x="0px" y="0px"
	 viewBox="0 0 1287 287.3" style="enable-background:new 0 0 1287 287.3;" xml:space="preserve">
<style type="text/css">
	.st0{fill:#263C75;}
</style>
<g>
	<g>
		<g>
			<g id="Layer_5_47_">
				<g>
					<path class="st0" d="M312.9,249L173.5,36.8c-2.8-4.3-7.1-6.8-11.7-6.8c-4.7,0-9.1,2.6-11.9,7L17.2,249
						c-2.9,4.6-3.2,9.6-0.9,13.8c2.3,4.2,6.7,6.5,12.2,6.5h273.4c5.5,0,9.9-2.4,12.2-6.6C316.3,258.6,315.9,253.6,312.9,249z
						 M161.8,46.7c1.4,0,2.2,1.3,2.2,1.3l84.5,125.8c5.4,9.8,1.8,12.8-8.5,2.8c0,0-30.6-35.5-42-46.1c-2.9-2.7-8.7-3.3-12-1.2
						c-8.5,5.7-23.2,20-31.8,25.6c-3.3,2.1-7.8,0.3-8.7-3.5c-3.1-12.6-5.6-38.5-8.9-51c-1-3.8-4.7-4.5-7.8-2.2
						c-0.8,0.6-2.4,1.6-3.3,2.1c-1,0.6-0.4-0.2-0.4-0.2l34.6-52.2C159.7,47.9,160.4,46.7,161.8,46.7z"/>
					<path class="st0" d="M390.9,219.4L262.6,24.2c-2.6-4-6.5-6.2-10.8-6.2c-4.4,0-8.3,2.4-10.9,6.5L214,67.2c0,0-1,1.5-0.2,3.3
						c0.9,1.9,3.3,5.4,4.6,7.1c1,1.3,2.4-0.9,2.4-0.9l29.3-44.5c0,0,0.8-1.2,1.7-1.2c1,0,1.8,1.3,1.8,1.3l83.5,123.6
						c2.4,3.4-3.9,3.5-9.4-0.9c-8.3-6.6-24.6-20.1-32.9-26.7c-2.8-2.2-8-3-11-1.1c-4.5,2.9-15.1,11.2-19.5,15.2
						c-2.3,2.1-0.6,4.2-0.6,4.2l58.4,88.9c0,0,1.7,2.9,4.3,2.9c13.6,0,54.4,0,54.4,0c5,0,9.1-2.2,11.2-6.1
						C394,228.2,393.7,223.6,390.9,219.4z"/>
				</g>
			</g>
		</g>
	</g>
	<g>
		<path class="st0" d="M415.8,163.4c0-14.4,2.8-28.2,8.3-41.3c5.6-13.1,13-24.3,22.4-33.8s20.6-17,33.6-22.6s26.7-8.4,40.9-8.4
			c18.2,0,35,4.3,50.4,12.8c15.5,8.5,28,20.1,37.7,34.6l-41.7,29.1c-5-7.9-11.6-14.2-19.8-18.9c-8.2-4.7-17.1-7.1-26.7-7.1
			c-15.2,0-28.1,5.4-38.7,16.2s-15.9,23.9-15.9,39.4c0,15.4,5.3,28.5,15.8,39.3s23.5,16.2,38.8,16.2c9.7,0,18.6-2.3,26.8-6.9
			c8.2-4.6,14.8-10.9,19.9-18.8l41.1,28.8c-9.7,14.6-22.2,26.1-37.6,34.7c-15.4,8.5-32.1,12.8-50.3,12.8c-14.3,0-27.9-2.8-40.9-8.4
			s-24.2-13.2-33.6-22.6c-9.4-9.5-16.8-20.8-22.4-33.9C418.6,191.4,415.8,177.7,415.8,163.4z"/>
		<path class="st0" d="M639.5,266.7V60.1h85.4c11.7,0,22.2,2,31.5,5.9s16.7,9.2,22.3,15.7c5.6,6.6,9.9,13.9,12.7,22
			c2.9,8.1,4.3,16.5,4.3,25.4c0,15.6-4.2,29.6-12.7,41.9s-20.7,20.5-36.8,24.5l50.4,71.3h-58.1l-44.5-69h-4.4v69L639.5,266.7
			L639.5,266.7z M689.5,154.6h32.9c7.6,0,13.3-2.5,17-7.5s5.6-11,5.6-18c0-6.9-1.8-12.9-5.5-17.8s-9.3-7.4-17.1-7.4h-32.9V154.6z"/>
		<path class="st0" d="M807,60.1h54.2l35.7,117.6l23.4-87.9H962l23,87.9l36-117.6h54.6l-70.3,206.6h-38.7l-26.1-100.5l-25.2,100.5
			h-39L807,60.1z"/>
		<path class="st0" d="M1096.6,266.7V60.1h81.8c14.6,0,27.9,2.7,39.8,8s21.8,12.6,29.6,22c7.8,9.3,13.8,20.3,18.1,32.9
			c4.2,12.6,6.4,26.3,6.4,41c0,19.6-3.6,37.1-10.8,52.5c-7.2,15.4-18,27.6-32.3,36.7s-31.2,13.6-50.6,13.6L1096.6,266.7
			L1096.6,266.7z M1146.7,222.4h31.5c9.4,0,17.5-2.8,24.2-8.4c6.7-5.6,11.7-12.7,14.9-21.3c3.2-8.6,4.8-18.2,4.8-28.7
			c0-7.8-0.9-15.3-2.8-22.3s-4.6-13.3-8.1-18.9c-3.6-5.6-8.2-10-13.9-13.3c-5.7-3.3-12-4.9-19.1-4.9h-31.5V222.4z"/>
	</g>
</g>
</svg>
